<svg xmlns="http://www.w3.org/2000/svg" version="1.1" xmlns:xlink="http://www.w3.org/1999/xlink" viewBox="0 0 200 200"><rect width="200" height="200" fill="url('#gradient')"></rect><defs><linearGradient id="gradient" gradientTransform="rotate(45 0.5 0.5)"><stop offset="0%" stop-color="#3a55c7"></stop><stop offset="100%" stop-color="#320640"></stop></linearGradient></defs><g><g fill="#ffffff" transform="matrix(2.285430874147551,0,0,2.285430874147551,28.066454941514706,116.91453172833891)" stroke="#ff00e1" stroke-width="0.35"><path d="M3.65-14.22L6.28-8.05L8.90-14.22L12.60-14.22L8.02-5.11L8.02 0L4.54 0L4.54-5.11L-0.03-14.22L3.65-14.22ZM24.96-14.22L24.96-11.57L20.69-11.57L20.69 0L17.27 0L17.27-11.57L13.08-11.57L13.08-14.22L24.96-14.22ZM29.73-15L29.73 0L26.43 0L26.43-15L29.73-15ZM31.35-4.82L31.34-5.38Q31.34-6.96 31.95-8.20Q32.57-9.43 33.72-10.10Q34.87-10.76 36.43-10.76L36.43-10.76Q38.80-10.76 40.17-9.29Q41.53-7.82 41.53-5.29L41.53-5.29L41.53-5.18Q41.53-2.71 40.16-1.25Q38.79 0.20 36.45 0.20L36.45 0.20Q34.19 0.20 32.82-1.16Q31.46-2.51 31.35-4.82L31.35-4.82ZM34.64-5.77L34.63-5.18Q34.63-3.71 35.09-3.03Q35.55-2.34 36.45-2.34L36.45-2.34Q38.20-2.34 38.24-5.05L38.24-5.05L38.24-5.38Q38.24-8.22 36.43-8.22L36.43-8.22Q34.78-8.22 34.64-5.77L34.64-5.77ZM52.23 0L48.94 0Q48.76-0.32 48.62-0.95L48.62-0.95Q47.71 0.20 46.08 0.20L46.08 0.20Q44.59 0.20 43.54-0.71Q42.50-1.61 42.50-2.98L42.50-2.98Q42.50-4.70 43.77-5.58Q45.04-6.46 47.46-6.46L47.46-6.46L48.48-6.46L48.48-7.01Q48.48-8.47 47.22-8.47L47.22-8.47Q46.04-8.47 46.04-7.31L46.04-7.31L42.75-7.31Q42.75-8.85 44.06-9.80Q45.36-10.76 47.38-10.76Q49.40-10.76 50.58-9.78Q51.75-8.79 51.78-7.07L51.78-7.07L51.78-2.39Q51.80-0.94 52.23-0.17L52.23-0.17L52.23 0ZM46.88-2.15L46.88-2.15Q47.49-2.15 47.90-2.41Q48.30-2.68 48.48-3.01L48.48-3.01L48.48-4.70L47.52-4.70Q45.80-4.70 45.80-3.15L45.80-3.15Q45.80-2.71 46.10-2.43Q46.41-2.15 46.88-2.15ZM53.18-5.36L53.18-5.36Q53.18-7.87 54.27-9.32Q55.35-10.76 57.29-10.76L57.29-10.76Q58.71-10.76 59.68-9.65L59.68-9.65L59.68-15L62.98-15L62.98 0L60.02 0L59.85-1.13Q58.84 0.20 57.28 0.20L57.28 0.20Q55.39 0.20 54.29-1.25Q53.18-2.70 53.18-5.36ZM56.48-5.76L56.47-5.16Q56.47-2.34 58.12-2.34L58.12-2.34Q59.21-2.34 59.68-3.26L59.68-3.26L59.68-7.29Q59.23-8.22 58.13-8.22L58.13-8.22Q56.61-8.22 56.48-5.76L56.48-5.76Z"></path></g></g></svg>